<svg width="21" height="16" viewBox="0 0 21 16" fill="none" xmlns="http://www.w3.org/2000/svg">
<path d="M9.54157 11.8157C9.54157 13.0785 9.1203 14.0903 8.27648 14.8513C7.43266 15.6129 6.38203 15.9937 5.12839 15.9937C3.52666 15.9937 2.27239 15.4823 1.36366 14.4596C0.454937 13.4375 -6.06927e-05 12.0769 -6.05444e-05 10.3796C-6.03922e-05 8.63941 0.269755 7.15909 0.811301 5.94053C1.35221 4.72261 2.00066 3.71141 2.75921 2.90501C3.51521 2.09989 4.30558 1.46885 5.12839 1.01189C5.94994 0.554934 6.66394 0.218935 7.26976 5.50864e-05L9.34748 3.52517C8.48203 3.87397 7.74576 4.42885 7.14058 5.19045C6.53412 5.95205 6.18857 6.76805 6.10139 7.63781C6.96621 7.63781 7.75721 8.01989 8.47121 8.78085C9.18521 9.54245 9.54157 10.5543 9.54157 11.8157ZM20.7715 11.8157C20.7715 13.0785 20.3496 14.0903 19.5058 14.8513C18.6619 15.6135 17.6119 15.9937 16.3577 15.9937C14.7553 15.9937 13.5017 15.4823 12.5929 14.4596C11.6836 13.4375 11.2292 12.0769 11.2292 10.3796C11.2292 8.63941 11.499 7.15909 12.0406 5.94053C12.5815 4.72261 13.2299 3.71141 13.9878 2.90501C14.7438 2.09989 15.5348 1.46885 16.3577 1.01189C17.1792 0.554935 17.8926 0.218936 18.499 5.60681e-05L20.5761 3.52518C19.7107 3.87397 18.975 4.42885 18.3698 5.19046C17.7634 5.95205 17.4172 6.76805 17.3307 7.63781C18.1955 7.63781 18.9865 8.01989 19.6998 8.78085C20.4145 9.54245 20.7715 10.5543 20.7715 11.8157Z" fill="#0D2F58"/>
</svg>
