<svg width="55" height="55" viewBox="0 0 55 55" fill="none" xmlns="http://www.w3.org/2000/svg">
<path d="M49.3097 18.3131C48.2988 16.4544 47.0712 14.7599 45.6679 13.2529L48.2757 10.0175C48.6647 9.53498 48.5887 8.82829 48.1061 8.43924C47.6234 8.05032 46.9166 8.12597 46.5277 8.60873L44.0569 11.674C40.9556 8.89855 37.1911 6.93572 33.1062 5.98894V1.12245C33.1062 0.50252 32.6037 0 31.9838 0H23.5523C22.9324 0 22.4298 0.50252 22.4298 1.12245V5.87512C20.0692 6.37035 17.7767 7.20668 15.6435 8.36696C13.9344 9.29646 12.3628 10.4062 10.9459 11.6692L8.47934 8.60873C8.09041 8.12619 7.38361 8.05032 6.90095 8.43924C6.4183 8.82829 6.34231 9.53498 6.73135 10.0175L9.3324 13.2447C6.73853 16.0236 4.80646 19.3878 3.69804 23.1398C1.8194 29.4985 2.52946 36.2082 5.69724 42.0327C10.0476 50.0313 18.4114 55 27.5246 55C31.6358 55 35.7297 53.9552 39.3635 51.9789C43.2638 49.8577 46.5244 46.7337 48.7929 42.9448C50.9945 39.2674 52.215 35.0594 52.3229 30.7754C52.4317 26.4471 51.3898 22.1377 49.3097 18.3131ZM24.6747 2.2449H30.8614V5.57543C29.7511 5.42356 28.6227 5.34578 27.4825 5.34578C26.5439 5.34578 25.6063 5.40302 24.6747 5.51066V2.2449ZM50.0786 30.719C49.876 38.772 45.3593 46.1626 38.291 50.0069C34.9853 51.8048 31.2622 52.7551 27.5246 52.7551C19.2345 52.7551 11.6264 48.2356 7.66938 40.9603C1.7213 30.0236 5.77985 16.287 16.7162 10.3389C20.0218 8.54094 23.7449 7.59067 27.4825 7.59067C35.7726 7.59067 43.3807 12.1103 47.3375 19.3856C49.2297 22.8647 50.1776 26.7838 50.0786 30.719Z" fill="#F29725"/>
<path d="M28.0491 13.0826C28.0613 13.0829 28.0734 13.083 28.0855 13.083C28.6889 13.083 29.1873 12.6037 29.2068 11.9964L29.2263 11.3851C29.2461 10.7654 28.7598 10.247 28.1402 10.2274C27.5229 10.2076 27.0022 10.6939 26.9825 11.3135L26.963 11.9249C26.9432 12.5443 27.4295 13.0627 28.0491 13.0826Z" fill="#F29725"/>
<path d="M17.9116 14.6398C18.114 15.0176 18.5014 15.2326 18.902 15.2326C19.0808 15.2326 19.2622 15.1897 19.4309 15.0995C19.9773 14.8069 20.1832 14.1266 19.8906 13.5801L19.6019 13.0409C19.3093 12.4945 18.6292 12.2886 18.0825 12.5813C17.5361 12.8739 17.3303 13.5541 17.6229 14.1006L17.9116 14.6398Z" fill="#F29725"/>
<path d="M12.6139 19.6094L12.0942 19.2869C11.5678 18.9601 10.8756 19.122 10.5486 19.6487C10.2216 20.1754 10.3836 20.8673 10.9104 21.1943L11.4301 21.5169C11.6144 21.6311 11.8189 21.6857 12.0209 21.6857C12.3964 21.6857 12.7632 21.4974 12.9757 21.1551C13.3026 20.6284 13.1407 19.9364 12.6139 19.6094Z" fill="#F29725"/>
<path d="M10.4133 29.6271C10.433 29.0074 9.94666 28.4892 9.32707 28.4696L8.71578 28.4501C8.09518 28.4308 7.57795 28.9167 7.5582 29.5363C7.53844 30.156 8.0248 30.6743 8.64439 30.694L9.25568 30.7134C9.2678 30.7138 9.28004 30.714 9.29205 30.714C9.89536 30.7139 10.3938 30.2345 10.4133 29.6271Z" fill="#F29725"/>
<path d="M10.9106 37.7859L10.3715 38.0747C9.82496 38.3674 9.61933 39.0478 9.91207 39.5942C10.1144 39.9719 10.5019 40.1868 10.9024 40.1868C11.0813 40.1868 11.2627 40.1438 11.4314 40.0535L11.9705 39.7648C12.517 39.4721 12.7227 38.7917 12.4299 38.2453C12.1372 37.6988 11.457 37.493 10.9106 37.7859Z" fill="#F29725"/>
<path d="M18.4858 44.7005C17.9589 44.3736 17.2672 44.5357 16.9401 45.0624L16.6176 45.582C16.2907 46.1087 16.4527 46.8007 16.9795 47.1276C17.1639 47.2421 17.3683 47.2966 17.5703 47.2966C17.9458 47.2966 18.3126 47.1082 18.5252 46.7658L18.8477 46.2461C19.1745 45.7194 19.0125 45.0273 18.4858 44.7005Z" fill="#F29725"/>
<path d="M26.9581 47.263C26.3362 47.2447 25.8201 47.7294 25.8004 48.3491L25.7809 48.9603C25.7611 49.5799 26.2473 50.0983 26.8669 50.118C26.8792 50.1184 26.8913 50.1185 26.9034 50.1185C27.5067 50.1185 28.0052 49.6393 28.0246 49.0319L28.0442 48.4205C28.0639 47.801 27.5777 47.2828 26.9581 47.263Z" fill="#F29725"/>
<path d="M37.0956 45.7056C36.8029 45.1592 36.1226 44.9531 35.5761 45.2462C35.0297 45.5388 34.8239 46.2191 35.1166 46.7655L35.4054 47.3048C35.6077 47.6826 35.9953 47.8975 36.3958 47.8975C36.5746 47.8975 36.7561 47.8545 36.9248 47.7642C37.4713 47.4716 37.677 46.7912 37.3844 46.2447L37.0956 45.7056Z" fill="#F29725"/>
<path d="M44.0967 39.1513L43.5771 38.8288C43.0506 38.502 42.3584 38.6638 42.0315 39.1906C41.7045 39.7172 41.8665 40.4092 42.3933 40.7362L42.9129 41.0587C43.0972 41.1732 43.3017 41.2277 43.5037 41.2277C43.8792 41.2277 44.246 41.0394 44.4585 40.6969C44.7853 40.1701 44.6234 39.4782 44.0967 39.1513Z" fill="#F29725"/>
<path d="M46.3627 29.6518L45.7513 29.6323C45.1295 29.6139 44.6135 30.0989 44.5936 30.7185C44.5738 31.3382 45.0602 31.8565 45.6798 31.8762L46.2912 31.8957C46.3033 31.896 46.3156 31.8962 46.3276 31.8962C46.9309 31.8962 47.4294 31.4168 47.4488 30.8095C47.4686 30.1898 46.9823 29.6715 46.3627 29.6518Z" fill="#F29725"/>
<path d="M43.5674 22.693C43.7464 22.693 43.9277 22.6501 44.0964 22.5596L44.6356 22.2709C45.1821 21.9783 45.3877 21.298 45.095 20.7515C44.8024 20.2051 44.1219 19.9993 43.5756 20.292L43.0365 20.5809C42.49 20.8735 42.2844 21.5538 42.5771 22.1003C42.7794 22.4781 43.1669 22.693 43.5674 22.693Z" fill="#F29725"/>
<path d="M38.0274 13.2179C37.5009 12.8911 36.8088 13.0531 36.4818 13.5799L36.1593 14.0996C35.8325 14.6262 35.9945 15.3183 36.5213 15.6452C36.7056 15.7596 36.91 15.8141 37.1121 15.8141C37.4875 15.8141 37.8545 15.6257 38.0669 15.2833L38.3894 14.7636C38.7163 14.2366 38.5542 13.5447 38.0274 13.2179Z" fill="#F29725"/>
<path d="M29.2768 27.2281C28.7211 26.8938 28.0859 26.7171 27.4399 26.7171C26.5882 26.7171 25.771 27.0272 25.1341 27.5638L16.4915 22.0779C15.968 21.7458 15.2743 21.9008 14.9423 22.4241C14.61 22.9475 14.765 23.6411 15.2883 23.9734L23.9611 29.4784C23.8343 30.0213 23.8364 30.5903 23.9749 31.147C24.2049 32.0719 24.7813 32.8519 25.598 33.3432C26.1537 33.6776 26.789 33.8542 27.435 33.8542C28.681 33.8542 29.8534 33.1916 30.4949 32.1251C31.5091 30.4392 30.9627 28.2424 29.2768 27.2281ZM28.5712 30.968C28.3296 31.3696 27.9049 31.6094 27.435 31.6094C27.1966 31.6094 26.9615 31.5438 26.7552 31.4197C26.4523 31.2376 26.2385 30.9483 26.1533 30.6053C26.068 30.2623 26.1214 29.9066 26.3037 29.6036C26.5453 29.2019 26.9701 28.9621 27.4399 28.9621C27.6782 28.9621 27.9132 29.0278 28.1195 29.1518C28.7447 29.5279 28.9474 30.3426 28.5712 30.968Z" fill="#F29725"/>
</svg>
