<svg width="55" height="55" viewBox="0 0 55 55" fill="none" xmlns="http://www.w3.org/2000/svg">
<g clip-path="url(#clip0_7_341)">
<path d="M50.284 8.25739C50.0716 8.05013 49.7595 7.92653 49.4912 7.94391C40.2534 8.15728 33.2499 5.595 28.6231 0.370807C28.4149 0.134882 28.1146 0 27.7997 0C27.4853 0 27.185 0.134882 26.9763 0.370807C22.3499 5.59547 15.3483 8.16245 6.1237 7.94391C5.82151 7.92606 5.54188 8.05013 5.33086 8.25739C5.11937 8.46464 5 8.74804 5 9.04365V12.997C5 29.7759 13.2959 45.4072 27.1906 54.8108C27.3772 54.9372 27.592 55.0002 27.8072 55.0002C28.0229 55.0002 28.2377 54.9372 28.4238 54.8108C42.319 45.4072 50.6149 29.7759 50.6149 12.997V9.04365C50.6149 8.74804 50.4955 8.46464 50.284 8.25739ZM48.4145 12.997C48.4145 28.7951 40.7253 43.5292 27.8072 52.5648C14.8896 43.5292 7.19993 28.7951 7.19993 12.997V10.1551C16.0265 10.1396 22.9468 7.6389 27.7997 2.71126C32.6545 7.63984 39.5776 10.1406 48.4145 10.1551V12.997Z" fill="#F29725"/>
<path d="M20 24.5L25.5 30L34.5 21" stroke="#F29725" stroke-width="2"/>
</g>
<defs>
<clipPath id="clip0_7_341">
<rect width="55" height="55" fill="white"/>
</clipPath>
</defs>
</svg>
