<svg width="55" height="55" viewBox="0 0 55 55" fill="none" xmlns="http://www.w3.org/2000/svg">
<g clip-path="url(#clip0_7_300)">
<path d="M54.8987 53.4047L43.0404 29.8868C42.8534 29.5165 42.4741 29.282 42.0587 29.282H33.3694C36.8307 24.1532 40.8165 17.3664 40.8165 13.2978C40.8165 5.96534 34.8517 0 27.5187 0C20.1862 0 14.2214 5.96534 14.2214 13.2978C14.2214 17.3664 18.2072 24.1532 21.6685 29.282H12.9858C12.5713 29.282 12.1911 29.5165 12.004 29.8868L0.134921 53.4047C-0.0370882 53.7454 -0.0196993 54.1514 0.180038 54.4767C0.379776 54.8023 0.734134 55.0002 1.11669 55.0002H53.917C54.299 55.0002 54.6539 54.8023 54.8536 54.4767C55.0533 54.1514 55.0703 53.7454 54.8987 53.4047ZM27.5187 2.19993C33.6387 2.19993 38.6166 7.17786 38.6166 13.2978C38.6166 18.1037 31.2691 28.7505 27.5187 33.679C23.7679 28.7505 16.4213 18.1061 16.4213 13.2978C16.4213 7.17786 21.3992 2.19993 27.5187 2.19993ZM2.90446 52.7998L13.6626 31.4819H23.1884C25.0377 34.0983 26.4857 35.942 26.6554 36.1572C26.8645 36.4213 27.1827 36.575 27.5187 36.575C27.8552 36.575 28.1729 36.4213 28.3825 36.1572C28.5522 35.942 29.9997 34.0983 31.8495 31.4819H41.3819L52.1301 52.7998H2.90446Z" fill="#F29725"/>
<path d="M33.6087 13.2978C33.6087 9.93983 30.8773 7.20789 27.5189 7.20789C24.1609 7.20789 21.4294 9.93983 21.4294 13.2978C21.4294 16.6557 24.1609 19.3877 27.5189 19.3877C30.8773 19.3877 33.6087 16.6557 33.6087 13.2978ZM23.6294 13.2978C23.6294 11.1524 25.3739 9.40782 27.5189 9.40782C29.6643 9.40782 31.4088 11.1524 31.4088 13.2978C31.4088 15.4427 29.6643 17.1872 27.5189 17.1872C25.3739 17.1872 23.6294 15.4427 23.6294 13.2978Z" fill="#F29725"/>
</g>
<defs>
<clipPath id="clip0_7_300">
<rect width="55" height="55" fill="white"/>
</clipPath>
</defs>
</svg>
