<svg width="55" height="55" viewBox="0 0 55 55" fill="none" xmlns="http://www.w3.org/2000/svg">
<g clip-path="url(#clip0_7_346)">
<path d="M42.656 19.8177H39.7614V12.2874C39.7614 5.51229 34.2491 0 27.474 0C20.6989 0 15.1867 5.51229 15.1867 12.2874V19.8177H12.2921C9.63677 19.8177 7.47632 21.9782 7.47632 24.6335V50.1844C7.47632 52.8397 9.63677 55.0002 12.2921 55.0002H42.656C45.3113 55.0002 47.4718 52.8397 47.4718 50.1844V24.6335C47.4718 21.9782 45.3113 19.8177 42.656 19.8177ZM17.3866 12.2874C17.3866 6.72528 21.9119 2.19993 27.474 2.19993C33.0366 2.19993 37.5615 6.72528 37.5615 12.2874V19.8177H17.3866V12.2874ZM45.2718 50.1844C45.2718 51.6263 44.0983 52.7998 42.656 52.7998H12.2921C10.8502 52.7998 9.67625 51.6263 9.67625 50.1844V24.6335C9.67625 23.1912 10.8502 22.0177 12.2921 22.0177H42.656C44.0983 22.0177 45.2718 23.1912 45.2718 24.6335V50.1844Z" fill="#F29725"/>
<path d="M27.4743 31.9565C25.3519 31.9565 23.6243 33.6837 23.6243 35.8065C23.6243 37.544 24.7898 39 26.3745 39.477V42.091C26.3745 42.6987 26.8671 43.1912 27.4743 43.1912C28.082 43.1912 28.5745 42.6987 28.5745 42.091V39.477C30.1592 39 31.3243 37.544 31.3243 35.8065C31.3243 33.6837 29.5971 31.9565 27.4743 31.9565ZM27.4743 37.4561C26.5644 37.4561 25.8242 36.7164 25.8242 35.8065C25.8242 34.8967 26.5644 34.1565 27.4743 34.1565C28.3841 34.1565 29.1243 34.8967 29.1243 35.8065C29.1243 36.7164 28.3841 37.4561 27.4743 37.4561Z" fill="#F29725"/>
</g>
<defs>
<clipPath id="clip0_7_346">
<rect width="55" height="55" fill="white"/>
</clipPath>
</defs>
</svg>
