<svg width="47" height="55" viewBox="0 0 47 55" fill="none" xmlns="http://www.w3.org/2000/svg">
<path d="M44.7197 39.5958L37.5892 35.5202H31.5563V32.083C31.5563 30.1874 30.0142 28.6453 28.1186 28.6453V24.0498C28.1186 23.7262 28.2537 23.4217 28.4892 23.2146C31.128 20.896 32.7029 16.9296 32.7029 12.6033C32.7029 5.65445 28.5906 0 23.5353 0C18.4806 0 14.3683 5.65445 14.3683 12.6033C14.3683 16.9306 15.9432 20.8975 18.5814 23.2146C18.8169 23.4217 18.952 23.7262 18.952 24.0498V28.6453C17.0565 28.6453 15.5143 30.1874 15.5143 32.083V35.5202H9.48047L2.35097 39.5958C1.28226 40.2058 0.618408 41.3495 0.618408 42.5802V48.125H4.05563V50.4166C4.05563 52.9443 6.11179 54.9999 8.63941 54.9999H38.4313C40.9589 54.9999 43.015 52.9443 43.015 50.4166V48.125H46.4523V42.5802C46.4523 41.3495 45.7884 40.2058 44.7197 39.5958ZM16.6604 12.6033C16.6604 6.91752 19.7442 2.29164 23.5353 2.29164C27.3265 2.29164 30.4112 6.91752 30.4112 12.6033C30.4112 16.2256 29.0953 19.632 26.9765 21.4938C26.2456 22.1361 25.827 23.0672 25.827 24.0498V28.6453H21.2437V24.0498C21.2437 23.0672 20.8251 22.1361 20.0942 21.4938C17.9763 19.632 16.6604 16.2256 16.6604 12.6033ZM17.806 32.083C17.806 31.4505 18.3205 30.9369 18.952 30.9369H28.1186C28.7506 30.9369 29.2647 31.4505 29.2647 32.083V35.5202H17.806V32.083ZM40.7234 50.4166C40.7234 51.6797 39.6953 52.7083 38.4313 52.7083H8.63941C7.37535 52.7083 6.34727 51.6797 6.34727 50.4166V48.125H40.7234V50.4166ZM44.1606 45.8334H2.91005V42.5802C2.91005 42.1695 3.13084 41.7891 3.48725 41.5854L10.0895 37.8124H36.9807L43.5834 41.5854H43.5839C43.9398 41.7891 44.1606 42.1695 44.1606 42.5802V45.8334Z" fill="#F29725"/>
</svg>
