<svg width="55" height="55" viewBox="0 0 55 55" fill="none" xmlns="http://www.w3.org/2000/svg">
<g clip-path="url(#clip0_7_279)">
<path d="M50.7112 45.7671L42.6732 31.6463C43.4879 31.2661 43.9767 30.3971 43.9223 29.4196L43.3249 24.4229L46.7465 20.8384C47.5069 20.0781 47.5612 18.7746 46.8008 17.8513L43.3792 14.1582L44.0853 9.10726C44.1939 8.02104 43.4335 6.93483 42.3473 6.71758L37.405 5.73999L35.0154 1.3408C34.5266 0.308893 33.3317 -0.125594 32.2455 0.308893H32.1912L27.6291 2.42702L23.1756 0.254582C22.6868 -0.0169722 22.0894 -0.0712831 21.5462 0.0916497C21.0031 0.254582 20.5686 0.634759 20.2971 1.12356L17.8531 5.52274L12.9108 6.39172C11.7703 6.60896 11.0099 7.64087 11.1185 8.83571L11.716 13.8323L8.29438 17.4168C7.53402 18.1772 7.47971 19.4806 8.24006 20.4039L11.6617 24.0971L10.9556 29.148C10.847 30.1256 11.4444 31.0489 12.3677 31.4291L4.27537 45.7671C4.05812 46.093 4.11243 46.5275 4.27537 46.8534C4.49261 47.1792 4.81848 47.3965 5.19865 47.3965H13.8884L17.8531 54.294C18.0703 54.6198 18.3962 54.8371 18.7764 54.8371C19.1566 54.8371 19.5367 54.6198 19.6997 54.294L27.4661 41.0421L35.2326 54.4569C35.4498 54.7828 35.7757 55 36.1559 55C36.5361 55 36.9162 54.7828 37.0792 54.4569L41.0439 47.3965H49.7336C50.1138 47.3965 50.494 47.1792 50.6569 46.8534C50.9285 46.5275 50.9285 46.093 50.7112 45.7671ZM18.8307 51.5784L15.4634 45.7671C15.2462 45.4413 14.9203 45.224 14.5401 45.224H7.04522L14.5401 31.9722L17.6359 32.5153L20.0255 36.9145C20.5143 37.9464 21.7092 38.3809 22.7954 37.9464H22.8497L25.0765 36.9145L26.1627 38.8153L18.8307 51.5784ZM21.9807 35.9912C21.9264 35.9912 21.9264 35.9912 21.9264 35.9912L19.5367 31.4834C19.2109 30.9403 18.6678 30.5058 18.016 30.4515L13.0194 29.5282L13.7255 24.5316C13.8341 23.8798 13.6168 23.1738 13.1824 22.7393L9.81508 19.0462L13.2367 15.4616C13.7255 14.9728 13.9427 14.3211 13.8341 13.6694L13.2367 8.72709C13.2367 8.72709 13.2367 8.67278 13.291 8.61847L18.2333 7.74949C18.8307 7.64087 19.4281 7.26069 19.754 6.66327L22.198 2.26409L26.6515 4.43652C27.2489 4.76239 28.0092 4.76239 28.6067 4.43652L33.1145 2.37271C33.1688 2.37271 33.1688 2.37271 33.1688 2.37271L35.5585 6.88052C35.8843 7.42362 36.4274 7.85811 37.0249 7.91242L41.9672 8.89002L41.2611 13.8866C41.1525 14.5384 41.3697 15.2444 41.8042 15.6789L45.2258 19.372L41.7499 22.9566C41.2611 23.4453 41.0439 24.0971 41.1525 24.7488L41.7499 29.7454L36.8619 30.5601C36.2645 30.6687 35.6671 31.0489 35.3412 31.6463L32.8972 36.0455L28.4437 33.8731C27.8463 33.5472 27.086 33.5472 26.4885 33.8731L21.9807 35.9912ZM40.4464 45.224C40.0663 45.224 39.6861 45.4413 39.5232 45.7671L36.1559 51.7413L28.498 38.4895C28.4437 38.3265 28.3894 38.2179 28.2808 38.1093L27.086 35.9912L27.4661 35.8282L31.9196 38.0007C32.2455 38.1636 32.5714 38.2179 32.8972 38.2179C33.6576 38.2179 34.4179 37.8377 34.7981 37.1317L37.2421 32.7325L40.5008 32.1351L47.9414 45.224H40.4464Z" fill="#F29725"/>
<path d="M38.3284 19.1548C38.3284 13.1806 33.4404 8.2926 27.4662 8.2926C21.492 8.2926 16.604 13.1806 16.604 19.1548C16.604 25.129 21.492 30.017 27.4662 30.017C33.4404 30.017 38.3284 25.129 38.3284 19.1548ZM27.4662 27.8445C22.6868 27.8445 18.7764 23.9341 18.7764 19.1548C18.7764 14.3754 22.6868 10.465 27.4662 10.465C32.2456 10.465 36.1559 14.3754 36.1559 19.1548C36.1559 23.9341 32.2456 27.8445 27.4662 27.8445Z" fill="#F29725"/>
</g>
<defs>
<clipPath id="clip0_7_279">
<rect width="55" height="55" fill="white"/>
</clipPath>
</defs>
</svg>
