<svg width="158" height="47" viewBox="0 0 158 47" fill="none" xmlns="http://www.w3.org/2000/svg">
<path d="M59.9612 23.2015C59.9612 36.0151 46.5379 46.403 29.9807 46.403C13.4226 46.403 0 36.0151 0 23.2015C0 10.3878 13.4226 0 29.9807 0C46.5379 0 59.9612 10.3881 59.9612 23.2015Z" fill="#80BB3D"/>
<path d="M56.6115 23.1589C56.5947 12.196 44.6577 3.32708 29.9501 3.34965C25.9633 3.35566 22.1828 4.01499 18.7893 5.19057C15.9102 4.83569 13.0798 5.96732 13.0798 5.96732C13.0798 5.96732 15.144 9.30219 18.2433 10.5212C20.4218 11.3782 22.8808 10.6571 23.3113 10.2501C23.3118 10.2499 22.4657 8.52352 19.7337 7.31481C18.6765 6.84756 17.2157 6.42617 15.5942 6.19758C16.6862 6.29147 17.6128 6.17333 19.8182 6.87565C22.8885 7.85361 23.6991 9.68637 23.6991 9.68637C23.8751 7.95974 22.7187 6.74023 21.5806 6.08641C24.1968 5.40402 27.0145 5.02897 29.9515 5.02465C43.734 5.00328 54.9197 13.1247 54.9349 23.1637C54.9399 26.2709 53.8736 29.1979 51.9902 31.7591C51.9573 31.7267 50.7293 30.4709 49.2267 29.3729C49.9027 25.3271 46.9272 21.5667 43.6894 19.7112C45.174 14.988 40.6121 10.1635 32.3476 9.99082C31.1175 9.98122 29.4343 10.0446 28.3387 10.1625L28.7978 7.24422L28.1433 7.24518C25.85 7.26391 24.9978 8.73265 24.7503 9.30915L23.8645 11.0132C18.724 12.4397 15.9042 14.8792 15.6521 15.0967C15.0573 15.6103 15.1798 15.832 16.2391 15.3938C18.13 14.6112 20.3304 13.9084 22.6366 13.3747L15.7018 26.1355C11.9916 25.711 8.12178 26.1463 6.16393 28.661C5.42704 26.9492 5.02678 25.129 5.02414 23.2396C5.01501 17.4246 8.75615 12.2416 14.5848 8.90529C13.1098 7.9439 11.7743 8.72473 11.3546 9.02583C11.3431 9.03399 11.3433 9.03447 11.3316 9.04143C6.39804 12.6524 3.34073 17.6815 3.34914 23.2398C3.35322 25.8385 4.02769 28.3186 5.24912 30.591C5.09953 31.3744 5.18669 32.2977 5.88349 33.1882C6.82087 34.3859 8.69804 34.9153 10.8931 34.1475C13.8561 33.1124 16.1335 29.8649 16.8574 28.6869C14.7176 28.3366 13.8712 29.115 13.5691 29.5182C12.6961 30.682 11.4127 31.9891 10.0679 32.5661C7.31502 33.7465 5.53389 31.2558 7.70784 29.2512C9.1797 27.8933 12.0999 27.6107 14.7337 27.9428C14.7337 27.9428 14.7985 27.943 14.7983 27.943C18.1266 28.3827 20.6932 29.3895 21.2509 29.6166C20.7402 32.6187 20.3808 34.5372 20.3808 34.5372L21.3611 34.5494C24.5642 34.548 24.8456 32.156 24.8456 32.156C24.8504 32.1603 25.0103 31.3144 25.0103 31.3144C27.9473 32.7577 30.8039 34.2992 30.9492 34.3847C31.701 34.7982 32.7884 34.7744 32.9567 33.6819L34.201 25.2125C37.4583 25.0226 40.6577 23.7539 42.3649 21.9012C43.851 23.0672 45.2261 24.9254 45.4883 27.1737C43.6699 26.3835 41.6134 25.9117 39.5021 26.239C34.6111 26.9965 32.9008 32.0271 35.5905 34.8812C37.6084 37.0228 40.5026 37.2557 43.6156 36.0791C45.2585 35.4582 46.8768 34.2413 47.9823 32.5212C47.7494 32.2849 47.3076 31.8688 46.806 31.5598C45.4323 30.7144 44.414 31.6724 44.1182 32.0081C43.2466 33.0996 42.0535 33.8975 40.8052 34.2027C35.116 35.5917 34.5796 28.1423 40.4111 27.9188C42.2552 27.848 43.879 28.635 45.3089 29.6706C45.3084 29.6713 45.3079 29.6728 45.3079 29.6735C46.7844 30.7823 48.8118 32.836 49.8237 33.5409C51.9803 35.0435 54.0817 34.3818 54.0817 34.3818C54.0817 34.3818 53.7185 33.7832 53.1144 33.0206C55.3433 30.1136 56.6166 26.7466 56.6115 23.1589ZM21.6522 27.3483C20.5469 26.9929 18.4782 26.5631 18.0476 26.4774L23.5154 16.3871C22.9447 19.7488 22.2373 23.9047 21.6522 27.3483ZM34.4632 23.4297L34.9664 20.0053C31.1893 20.0343 30.6466 22.6174 30.5845 23.0259C28.7772 22.1543 30.3117 20.2766 32.8537 19.7952C35.6688 19.2617 38.3407 19.891 39.9518 20.5527C39.0459 22.2205 37.0434 23.2143 34.4632 23.4297ZM40.6071 18.5224C39.1753 18.1476 37.2667 17.8081 35.2764 17.8791L35.9446 13.331C31.9187 12.6522 31.6995 15.3594 31.6995 15.3594C31.5564 16.3309 31.3929 17.4407 31.2188 18.6189C27.4808 20.0665 27.1242 23.4026 30.3215 24.7016C29.9986 26.8897 29.4977 30.2767 29.4903 30.2714C28.4506 29.8176 26.3609 28.9637 25.4317 28.6209L27.9697 12.4911C38.8476 11.3635 40.9728 16.372 40.6071 18.5224ZM48.2644 35.5593L48.2601 35.5627C43.7295 39.1254 37.1709 41.3685 30.007 41.3793C22.8923 41.3901 16.4704 39.2099 11.9186 35.7584C11.4691 35.4179 10.3293 34.6454 8.89662 35.342C13.7735 40.0414 21.419 43.0627 30.0108 43.0495C38.6329 43.0365 46.2931 39.9701 51.1531 35.2268C49.7826 34.5484 48.5857 35.3187 48.2644 35.5593Z" fill="white"/>
<path d="M121.646 4.86596C120.089 4.86596 119.5 5.49073 118.946 6.82093C118.158 9.15551 117.42 11.3331 117.269 11.7809C117.029 11.2236 115.557 7.81378 114.284 4.86596H109.47C111.683 9.59515 114.897 16.4707 115.161 17.0344C115.064 17.2561 114.993 17.427 114.993 17.427C114.563 18.3867 113.683 18.5166 112.922 18.5166L111.194 18.4775L110.778 21.5859C111.792 21.8633 112.837 21.9742 114.011 21.9742C115.981 21.9742 117.484 21.0805 118.267 19.4576L119.184 17.5226C119.36 17.1473 119.537 16.7466 119.703 16.3206L124.259 4.86572H121.646V4.86596Z" fill="#4B721D"/>
<path d="M103.667 10.8998C103.667 10.8998 101.531 10.8998 101.123 10.8998V8.30783H106.482C107.75 8.25285 108.464 7.55533 108.464 6.30412L108.467 6.30917V4.83105H99.3192C97.4322 4.87019 96.563 6.05585 96.563 7.44656V21.7237H104.003C108.566 21.7237 110.186 18.808 110.186 16.3119C110.187 13.6183 108.171 10.8998 103.667 10.8998ZM102.413 18.2469C102.413 18.2469 101.5 18.2469 101.123 18.2469V14.3768C101.516 14.3768 102.967 14.3768 102.967 14.3768C104.537 14.3739 105.384 15.2234 105.384 16.2636C105.384 17.1153 105.077 18.2469 102.413 18.2469Z" fill="#4B721D"/>
<path d="M145.544 15.1393C145.739 14.6214 147.298 10.492 147.625 9.62235C147.982 10.4817 149.696 14.6106 149.915 15.1393H145.544ZM134.753 13.1102C135.265 12.6345 135.853 11.7665 136.25 10.8659C136.251 10.8654 136.853 9.49221 136.853 9.49221C137.282 8.53298 138.117 8.40308 138.879 8.40308H138.987L139.446 4.97768L139.159 4.93014C138.58 4.82954 138.092 4.78271 137.627 4.78271C135.666 4.78271 134.154 5.67568 133.37 7.29858L132.31 9.53975C131.746 10.7468 131.045 11.2618 129.967 11.2618C129.967 11.2618 129.32 11.2618 129.022 11.2618C129.022 10.8284 129.022 4.8305 129.022 4.8305H127.211C125.354 4.86915 124.486 6.01831 124.461 7.38045V21.7229H129.022C129.022 21.7229 129.022 15.1734 129.022 14.7376C129.279 14.7376 129.703 14.7376 129.703 14.7376C131.185 14.7376 132.425 15.8104 133.392 17.9256C133.392 17.9263 135.141 21.7229 135.141 21.7229H143.056C143.056 21.7229 144.182 18.7453 144.284 18.4708H151.314C151.423 18.7335 152.662 21.7229 152.662 21.7229H157.584L150.08 4.83026H146.94C145.337 4.83026 144.76 5.48695 144.189 6.90192V6.90144L139.119 19.4798L137.932 17.0518C136.956 15.044 135.887 13.7246 134.753 13.1102Z" fill="#4B721D"/>
<path d="M92.5414 12.6835C93.6975 12.1307 95.0856 10.8426 95.0856 8.9433C95.0856 6.00821 91.653 4.69434 88.2538 4.69434C86.6642 4.69434 84.8435 4.98655 82.7192 5.56593L83.1113 9.14259C83.1113 9.14259 85.2997 8.48854 86.5077 8.38529C88.9991 8.17279 90.0791 8.92505 90.0791 9.82834C90.0791 10.2382 90.0791 11.4863 86.7718 11.4863H85.1763V14.9381H86.5077C89.1808 14.9381 90.1751 15.3612 90.1751 16.5005C90.1751 17.6326 89.0367 18.2461 86.7951 18.2065C85.5667 18.2065 84.2636 18.0547 83.0938 17.7822C83.1414 17.963 83.411 18.9582 83.8372 19.8416C84.138 20.4656 84.8096 21.6732 86.1372 21.8129C86.1372 21.8129 87.0926 21.9169 87.8465 21.8974C92.507 21.7754 95.1826 20.0522 95.1826 16.8347C95.1823 14.6315 93.9078 13.4806 92.5414 12.6835Z" fill="#4B721D"/>
<path d="M75.9534 4.83203H72.8096C71.2897 4.83203 70.6931 5.42918 70.1492 6.69552L64.0894 21.7239H68.9295C68.9295 21.7239 70.0553 18.7463 70.1581 18.4724H77.1873C77.2968 18.7346 78.5365 21.7239 78.5365 21.7239H83.4587L75.9534 4.83203ZM71.4192 15.1399C71.6144 14.622 73.1717 10.4928 73.5007 9.62292C73.8577 10.4823 75.5709 14.6112 75.7899 15.1399H71.4192Z" fill="#4B721D"/>
<path d="M80.0349 32.3841C81.2342 31.628 81.9372 30.4568 81.9372 29.1645C81.9372 27.0691 80.1609 24.8135 76.2603 24.8135H71.6608C69.872 24.8509 69.0088 25.9185 68.9231 27.2148V41.7051H77.1528C82.7546 41.7051 83.1899 37.8396 83.1899 36.6544C83.1899 34.6375 82.0146 33.0807 80.0349 32.3841ZM73.4835 28.2891C73.8535 28.2891 75.3943 28.2891 75.3943 28.2891C76.7694 28.2891 77.2565 29.0982 77.2565 29.7907C77.2565 30.5053 76.7694 31.3399 75.3943 31.3399C75.3943 31.3399 73.8535 31.3399 73.4835 31.3399V28.2891ZM75.5631 38.2286C75.5631 38.2286 73.86 38.2286 73.4835 38.2286V34.8162C73.8758 34.8162 76.1175 34.8162 76.1175 34.8162C77.2155 34.8162 78.3896 35.2421 78.3896 36.4379C78.3896 37.5719 77.9269 38.2286 75.5631 38.2286Z" fill="#4B721D"/>
<path d="M139.349 24.8398H136.205C134.686 24.8398 134.089 25.4377 133.544 26.7033L127.485 41.7322H132.325C132.325 41.7322 133.451 38.7542 133.555 38.4802H140.582C140.693 38.7429 141.932 41.7322 141.932 41.7322H146.854L139.349 24.8398ZM134.814 35.148C135.01 34.6303 136.567 30.5007 136.896 29.6307C137.253 30.4908 138.967 34.6188 139.186 35.148H134.814Z" fill="#4B721D"/>
<path d="M112.687 24.84C111.131 24.84 110.542 25.4645 109.987 26.7945C109.199 29.1288 108.461 31.3066 108.311 31.7542C108.07 31.1971 106.126 27.7007 104.877 24.8057H100.148C102.321 29.4506 105.938 36.4445 106.202 37.008C106.105 37.2296 106.034 37.4008 106.034 37.4008C105.604 38.3603 104.724 38.4902 103.964 38.4902L102.235 38.4511L101.819 41.5593C102.833 41.8366 103.878 41.9473 105.052 41.9473C107.023 41.9473 108.525 41.0541 109.309 39.4312L110.225 37.4961C110.402 37.1209 110.578 36.7203 110.745 36.2942L115.3 24.8398H112.687V24.84Z" fill="#4B721D"/>
<path d="M99.1064 28.4126L99.565 24.9867L99.2798 24.9397C98.6992 24.8386 98.2106 24.792 97.7457 24.792C95.7845 24.792 94.2728 25.6852 93.4888 27.3081L92.429 29.5497C91.8645 30.7558 91.1643 31.2706 90.087 31.2706C90.087 31.2706 89.4399 31.2706 89.1397 31.2706C89.1397 30.8377 89.1397 24.8403 89.1397 24.8403H87.3317C85.4603 24.8796 84.5928 26.0461 84.5791 27.4229V41.7322H89.1397C89.1397 41.7322 89.1397 35.1829 89.1397 34.7474C89.3983 34.7474 89.8221 34.7474 89.8221 34.7474C91.3038 34.7474 92.5442 35.8202 93.5119 37.9348C93.5119 37.9353 95.2606 41.7319 95.2606 41.7319H100.335L98.0523 37.0606C97.0746 35.0528 96.0056 33.7336 94.8714 33.1185C95.384 32.6431 95.9716 31.7753 96.3687 30.8747C96.3697 30.8737 96.9716 29.5008 96.9716 29.5008C97.4012 28.5418 98.2363 28.4121 98.9981 28.4121H99.1064V28.4126Z" fill="#4B721D"/>
<path d="M127.233 39.6155C127.618 38.5765 127.942 37.1241 127.941 37.1289C126.706 37.6127 125.227 38.255 123.122 38.2072C119.936 38.2072 118.256 35.973 118.256 33.2814C118.256 30.6488 119.996 28.3073 123.027 28.3073C124.674 28.3073 126.152 28.7589 127.967 29.819L128.143 29.9213V25.7252C126.193 24.945 124.61 24.5947 123.061 24.5947C120.506 24.5947 118.175 25.487 116.494 27.1079C114.804 28.7366 113.874 30.9989 113.874 33.4776C113.874 35.4344 114.689 37.5152 116.056 39.0442C117.232 40.3596 119.378 41.9265 122.93 41.9265C123.697 41.9265 124.241 41.9049 124.922 41.7606C126.11 41.508 126.848 40.6537 127.233 39.6155Z" fill="#4B721D"/>
</svg>
